<?xml version="1.0" standalone="no"?>
<!DOCTYPE svg PUBLIC "-//W3C//DTD SVG 20010904//EN"
 "http://www.w3.org/TR/2001/REC-SVG-20010904/DTD/svg10.dtd">
<svg version="1.0" xmlns="http://www.w3.org/2000/svg"
 width="500.000000pt" height="500.000000pt" viewBox="0 0 500.000000 500.000000"
 preserveAspectRatio="xMidYMid meet">
<metadata>
Created by potrace 1.14, written by Peter Selinger 2001-2017
</metadata>
<g transform="translate(0.000000,500.000000) scale(0.100000,-0.100000)"
fill="#000000" stroke="none">
<path d="M2478 3993 c-14 -16 -28 -36 -30 -46 -1 -9 -34 -41 -73 -70 -83 -64
-168 -176 -189 -250 -7 -29 -19 -83 -26 -122 -7 -38 -17 -83 -22 -100 -5 -16
-16 -83 -24 -147 -19 -157 -16 -151 -78 -143 -53 8 -86 20 -86 34 0 4 -20 18
-45 30 -40 20 -50 21 -81 11 -22 -8 -57 -9 -90 -5 -46 5 -63 3 -109 -19 -51
-23 -64 -25 -178 -22 -67 2 -133 6 -147 10 -72 18 -259 37 -360 36 -78 0 -142
6 -199 19 -57 12 -95 16 -120 10 -75 -16 -410 -9 -459 9 -15 6 -57 13 -95 15
l-67 5 0 -836 c1 -609 4 -839 12 -849 18 -22 19 -63 2 -63 -11 0 -14 -19 -14
-95 l0 -95 26 0 c21 0 25 -4 22 -22 -2 -17 -9 -23 -25 -22 -23 1 -23 -2 -23
-111 0 -88 3 -115 15 -125 19 -16 19 -34 0 -26 -13 5 -15 -45 -15 -416 l1
-421 42 6 c30 4 47 1 59 -10 9 -8 32 -18 50 -22 26 -5 33 -12 33 -31 0 -20 6
-26 28 -28 31 -4 33 -9 10 -34 -9 -10 -14 -20 -12 -23 10 -10 49 8 54 26 8 23
19 24 41 2 16 -16 16 -16 9 7 -12 40 -11 44 9 48 11 2 25 -3 32 -13 12 -16 14
-15 26 4 17 27 26 26 55 -5 22 -23 23 -29 10 -41 -11 -12 -19 -12 -35 -4 -21
11 -52 6 -52 -9 0 -39 7 -40 196 -40 116 0 184 4 184 10 0 6 7 10 15 10 8 0
15 -4 15 -10 0 -6 58 -10 155 -10 97 0 155 4 155 10 0 15 30 12 30 -2 0 -7 5
-5 11 5 10 17 13 17 34 3 21 -14 75 -16 380 -16 352 0 356 0 350 20 -5 16 -2
20 19 20 15 0 27 -7 31 -19 5 -16 16 -19 71 -19 56 0 64 2 53 14 -8 10 -9 18
-2 25 7 7 20 2 41 -15 34 -29 106 -36 143 -13 17 9 23 9 26 0 8 -24 31 -15 26
9 -5 19 -3 21 8 10 7 -6 25 -12 40 -12 15 0 31 -4 34 -10 8 -13 305 -14 305
-1 0 5 -7 17 -16 26 -9 9 -14 18 -12 21 8 8 68 -27 68 -40 0 -9 19 -13 65 -14
36 -1 65 3 65 8 0 6 9 10 20 10 11 0 20 -4 20 -10 0 -5 15 -10 34 -10 30 0 33
3 28 22 -4 18 -2 20 19 15 13 -4 27 -7 32 -7 4 0 7 -7 7 -15 0 -12 14 -15 62
-15 48 0 59 3 50 12 -17 17 -15 48 4 48 9 0 21 -14 27 -30 l11 -30 213 0 c117
0 213 4 213 9 0 4 -12 25 -26 46 -27 41 -26 65 5 65 36 0 75 -43 75 -84 0 -35
18 -50 30 -23 5 9 7 9 12 0 3 -7 13 -13 22 -13 12 0 13 3 4 12 -16 16 -15 28
3 28 8 0 15 -9 15 -20 0 -18 7 -20 59 -20 38 0 61 4 64 13 4 9 8 9 14 1 9 -13
193 -19 193 -6 0 4 -7 18 -16 31 -11 15 -13 26 -6 33 13 13 32 2 32 -18 0 -8
9 -14 20 -14 25 0 25 -9 3 -26 -16 -11 -7 -13 60 -14 45 0 77 4 77 10 0 6 9
10 20 10 11 0 20 -4 20 -10 0 -6 128 -10 365 -10 l365 0 0 25 c0 18 -4 23 -15
19 -8 -4 -15 -2 -15 4 0 5 7 12 15 16 23 8 23 536 0 536 -13 0 -17 10 -14 38
0 4 7 6 15 4 20 -4 19 64 -1 72 -19 7 -19 26 0 26 11 0 15 12 15 48 0 42 -4
51 -25 62 -14 7 -25 17 -25 22 0 4 11 8 25 8 l25 0 0 115 c0 112 -1 115 -22
116 -13 0 -17 3 -10 6 6 2 12 13 12 24 0 10 5 19 10 19 6 0 10 9 10 20 0 18
-12 24 -47 23 -7 -1 -13 3 -13 8 0 5 14 9 30 9 l30 0 0 180 0 180 -24 -6 c-29
-7 -49 22 -44 64 3 23 8 27 36 27 l32 0 0 647 0 648 -48 0 c-38 0 -59 -7 -96
-31 -46 -31 -50 -32 -122 -26 -41 4 -85 14 -98 22 -33 22 -126 55 -154 55 -13
0 -31 -4 -41 -10 -22 -11 -147 -14 -251 -5 -94 7 -155 7 -246 0 -95 -9 -285
18 -329 45 -18 11 -44 20 -57 20 -36 0 -56 28 -56 79 1 35 -4 49 -23 64 -27
21 -61 20 -184 -8 -76 -17 -115 -37 -115 -60 0 -22 -40 -44 -99 -55 -47 -9
-58 -7 -92 12 -36 20 -42 21 -108 8 -38 -7 -89 -11 -114 -8 l-45 5 -16 -41
c-9 -23 -16 -49 -16 -58 0 -9 -4 -20 -10 -23 -5 -3 -10 -17 -10 -30 0 -13 -4
-27 -10 -30 -5 -3 -10 -17 -10 -30 0 -13 -4 -27 -10 -30 -15 -9 -12 48 4 81
21 42 35 167 47 432 7 165 7 248 0 283 -6 28 -11 64 -11 82 0 59 -20 107 -62
148 -22 21 -44 39 -49 39 -18 0 -22 -74 -6 -124 9 -28 21 -73 26 -101 4 -27
12 -58 16 -67 4 -10 3 -18 -1 -18 -5 0 -19 28 -32 63 -13 34 -27 70 -33 79 -5
10 -9 27 -9 37 0 11 -4 23 -10 26 -14 9 -12 35 6 92 17 52 10 133 -12 140 -5
2 -22 -9 -36 -24z m39 -349 l2 -39 -14 35 c-17 45 -18 53 -2 48 6 -3 13 -22
14 -44z m-47 -176 c0 -36 -4 -58 -9 -52 -10 11 -21 101 -13 109 16 15 22 -1
22 -57z m47 -70 c-3 -8 -6 -5 -6 6 -1 11 2 17 5 13 3 -3 4 -12 1 -19z m-43
-15 c11 -42 17 -103 9 -103 -13 0 -33 51 -33 87 0 35 15 45 24 16z m133 -101
c15 -25 19 -42 13 -52 -7 -11 -12 -7 -24 20 -9 19 -27 49 -41 65 -14 17 -25
39 -25 50 1 17 5 15 28 -12 16 -18 38 -50 49 -71z m48 -111 c7 -32 6 -34 -9
-19 -9 9 -16 29 -16 44 0 36 16 20 25 -25z m-61 -476 c-21 -33 -33 -15 -13 21
7 15 16 21 22 15 5 -5 2 -20 -9 -36z m-64 -149 c0 -8 -7 -16 -15 -20 -15 -5
-21 14 -8 27 11 12 23 8 23 -7z m-49 -89 c-8 -8 -11 -7 -11 4 0 9 3 19 7 23 4
4 9 2 11 -4 3 -7 -1 -17 -7 -23z m-741 -32 c16 -19 -3 -45 -31 -45 -22 0 -26
29 -7 48 16 16 23 15 38 -3z m1256 -16 c10 -11 42 -31 71 -45 55 -25 66 -46
34 -64 -27 -14 -31 -13 -31 9 0 25 -28 46 -56 43 -13 -2 -24 2 -24 8 0 6 -7
22 -16 36 -13 19 -20 22 -30 13 -14 -11 -34 -5 -34 12 0 18 67 9 86 -12z
m-758 -21 c-3 -7 -11 -13 -18 -13 -7 0 -15 6 -17 13 -3 7 4 12 17 12 13 0 20
-5 18 -12z m187 -24 c0 -10 -8 -20 -17 -22 -18 -3 -43 32 -33 48 9 15 50 -6
50 -26z m109 -4 c-14 -14 -39 14 -29 31 5 8 12 6 23 -5 11 -11 13 -19 6 -26z
m376 -52 c0 -37 4 -45 27 -55 38 -18 51 -16 58 7 3 11 13 20 21 20 17 0 17 4
0 -45 -17 -50 -50 -60 -68 -21 -14 31 -24 33 -38 5 -9 -15 -8 -24 0 -35 7 -7
9 -21 6 -31 -13 -32 -39 11 -42 68 -1 28 -7 56 -13 62 -7 7 -3 19 12 38 30 38
37 36 37 -13z m-240 2 c0 -5 -4 -10 -10 -10 -5 0 -10 5 -10 10 0 6 5 10 10 10
6 0 10 -4 10 -10z m584 -14 c28 -24 28 -46 0 -46 -8 0 -23 -5 -34 -12 -26 -17
-32 -8 -24 41 7 47 17 50 58 17z m-459 -6 c3 -5 12 -7 20 -3 18 6 19 -1 5 -28
-6 -10 -17 -19 -25 -19 -16 0 -46 40 -39 52 7 11 31 10 39 -2z m363 -2 c-3 -7
-11 -13 -18 -13 -7 0 -15 6 -17 13 -3 7 4 12 17 12 13 0 20 -5 18 -12z m-33
-56 c-7 -27 -22 -49 -28 -41 -2 2 -7 18 -10 34 -5 27 -3 31 20 33 23 2 25 -1
18 -26z m218 -3 c21 -17 56 -59 77 -93 21 -34 52 -71 69 -84 16 -12 37 -37 46
-56 9 -19 31 -52 50 -73 19 -22 37 -51 40 -65 6 -23 14 -26 93 -38 116 -17
133 -27 113 -59 -7 -11 -16 -10 -46 9 l-38 23 -18 -24 c-24 -31 -24 -76 0
-115 11 -18 21 -44 23 -60 3 -24 9 -29 54 -39 49 -11 137 -55 149 -75 9 -14
-13 -50 -30 -50 -8 0 -35 20 -59 44 -29 28 -57 45 -78 49 -41 6 -44 4 -24 -25
9 -12 16 -35 16 -50 0 -15 6 -45 14 -65 8 -21 17 -62 20 -92 3 -30 16 -72 31
-97 20 -34 23 -48 16 -63 -7 -12 -7 -28 1 -48 9 -25 8 -37 -6 -67 -10 -20 -18
-49 -19 -64 -2 -25 1 -27 46 -30 41 -3 49 -7 64 -35 9 -18 16 -39 15 -49 -2
-9 2 -19 8 -23 5 -3 10 -15 10 -27 0 -18 -4 -19 -35 -14 -22 4 -35 3 -35 -4 0
-5 -9 -10 -19 -10 -24 0 -35 -15 -26 -38 6 -16 8 -15 21 3 11 15 18 17 31 9
30 -19 27 -34 -7 -34 -24 0 -30 -4 -28 -17 2 -10 -4 -19 -14 -21 -11 -2 -18 3
-18 13 0 8 -7 18 -15 21 -23 9 -18 38 10 62 14 12 25 26 25 32 0 5 16 10 35
10 19 0 35 2 35 5 0 11 -36 81 -45 87 -17 13 -25 9 -25 -11 0 -21 -22 -33 -43
-25 -23 9 -41 -25 -38 -72 2 -34 -4 -56 -24 -90 -15 -25 -25 -47 -23 -48 1 -2
22 -6 45 -10 28 -4 43 -2 45 6 2 6 10 8 16 4 17 -10 15 -26 -3 -26 -39 0 -1
-29 45 -34 34 -4 96 -19 105 -26 6 -4 22 -10 38 -12 21 -4 27 -1 27 13 0 29
21 34 41 8 l19 -24 6 22 c7 26 44 32 44 8 0 -20 -62 -104 -77 -104 -6 -1 -15
8 -18 19 -8 25 -17 25 -35 0 -8 -11 -24 -20 -35 -19 -11 0 -14 3 -7 6 19 8 14
23 -8 23 -11 0 -20 -4 -20 -10 0 -5 -4 -10 -10 -10 -5 0 -10 10 -10 22 0 22
-1 22 -27 -5 -26 -26 -27 -29 -10 -38 9 -6 17 -14 17 -19 0 -19 -25 -10 -47
18 -19 23 -24 25 -33 12 -9 -13 -13 -11 -29 9 -18 23 -19 23 -30 5 -10 -18
-12 -18 -21 -2 -21 35 -41 47 -68 42 -30 -5 -104 18 -110 34 -4 13 80 7 108
-8 22 -12 70 -13 70 -2 0 4 -9 13 -20 20 -11 7 -20 21 -20 32 0 15 -7 20 -27
20 -16 0 -35 -4 -42 -9 -10 -7 -24 -3 -44 11 -24 17 -33 19 -54 9 -21 -10 -29
-9 -43 4 -16 14 -18 14 -23 0 -4 -8 -14 -15 -22 -15 -25 0 -13 34 12 38 20 3
21 6 10 23 -10 17 -7 24 25 54 42 40 41 65 -3 102 -15 13 -30 37 -34 53 -5 22
-14 32 -33 36 -15 3 -34 9 -43 14 -9 4 -22 4 -30 0 -12 -8 -11 -14 5 -42 14
-22 16 -33 8 -36 -7 -2 -12 -10 -12 -18 0 -7 -7 -32 -16 -54 -13 -32 -20 -39
-35 -35 -23 8 -24 -1 -3 -22 15 -15 14 -18 -8 -34 -12 -10 -29 -19 -35 -19
-18 0 -16 -11 7 -40 26 -33 25 -40 -4 -40 -22 0 -24 -3 -19 -39 4 -29 1 -39
-11 -44 -21 -8 -37 23 -34 64 3 28 0 32 -27 35 -37 4 -68 40 -62 71 3 16 -4
29 -24 44 -24 18 -40 49 -26 49 10 0 67 -32 72 -41 10 -14 25 -11 19 5 -3 8
-1 17 5 21 6 3 11 22 11 41 0 28 -4 34 -22 34 -12 0 -18 3 -14 7 8 8 13 9 41
12 8 0 15 10 15 21 0 11 7 20 15 20 8 0 15 -4 15 -9 0 -5 -7 -16 -15 -25 -19
-19 -19 -50 0 -66 8 -7 13 -16 10 -20 -6 -10 50 -52 58 -43 4 3 4 17 0 31 -5
21 -3 24 11 19 11 -5 16 -1 16 14 0 15 -6 19 -22 17 -15 -2 -23 2 -23 12 -1
22 -15 72 -27 97 -6 12 -8 32 -5 44 4 15 -1 27 -16 39 -18 15 -21 27 -19 75 2
36 -1 54 -8 50 -5 -3 -10 -17 -10 -31 0 -14 -4 -22 -10 -19 -5 3 -10 32 -10
64 0 31 -4 61 -9 66 -5 6 -11 25 -13 44 -3 28 -8 35 -38 45 -27 9 -38 20 -49
51 -8 22 -19 42 -23 43 -4 2 -8 12 -8 23 0 14 7 19 25 19 24 0 30 9 25 40 -3
22 -8 24 -25 10 -14 -11 -20 -10 -40 11 -30 30 -24 66 12 75 15 4 22 12 19 20
-12 31 5 44 56 44 33 0 48 4 47 13 -3 23 13 57 27 57 18 0 18 10 -2 48 -20 41
-30 102 -16 102 13 0 52 -53 52 -72 0 -8 -6 -20 -12 -26 -10 -10 -10 -15 2
-22 12 -7 12 -12 3 -21 -9 -9 -10 -16 -2 -26 19 -22 32 -15 26 15 -4 19 3 40
21 69 29 46 51 55 54 23 0 -11 1 -26 2 -32 1 -8 -9 -12 -26 -10 -32 4 -34 -2
-13 -52 17 -41 30 -48 21 -11 -5 20 -2 26 19 31 27 7 96 -29 92 -49 -1 -6 7
-13 19 -15 17 -2 21 2 21 25 1 45 9 81 22 97 9 10 10 33 5 77 l-7 62 -18 -24
c-16 -20 -20 -22 -29 -9 -5 8 -10 26 -10 40 -1 27 -31 70 -49 70 -6 0 -11 7
-11 15 0 19 17 19 54 0 35 -18 36 -18 36 -2 0 8 -9 22 -20 32 -11 10 -20 29
-20 42 0 36 -29 73 -57 73 -22 0 -24 3 -18 28 4 20 1 33 -10 42 -16 13 -20 30
-7 30 4 0 25 -14 45 -31z m-503 -25 c0 -17 -22 -14 -28 4 -2 7 3 12 12 12 9 0
16 -7 16 -16z m428 4 c17 -17 15 -28 -7 -28 -13 0 -20 -9 -24 -30 -7 -34 -22
-39 -30 -10 -7 26 -27 26 -27 1 0 -37 18 -71 35 -65 22 9 30 -22 11 -41 -24
-24 -19 -35 14 -35 32 0 37 9 18 28 -9 9 -9 12 0 12 7 0 12 -3 13 -7 8 -67 5
-101 -7 -96 -8 3 -14 11 -14 19 0 13 -6 16 -27 13 -5 -1 -7 -5 -5 -11 3 -11
-14 -2 -40 20 -9 7 -22 11 -27 7 -16 -9 -14 -25 3 -25 19 0 46 -44 46 -76 0
-26 -1 -26 -24 -10 -18 11 -26 12 -29 3 -3 -9 -9 -7 -22 5 -17 16 -13 44 5 33
5 -3 11 -1 15 4 7 12 -25 30 -41 24 -6 -2 -17 4 -25 13 -12 15 -12 16 7 10 26
-8 43 21 18 31 -11 4 -14 14 -10 33 4 24 1 30 -24 40 -17 7 -30 16 -30 21 0 5
19 0 41 -12 49 -25 58 -19 67 47 7 47 8 48 42 49 30 1 35 4 33 23 -3 25 24 31
45 10z m-123 -8 c3 -5 1 -10 -4 -10 -6 0 -11 5 -11 10 0 6 2 10 4 10 3 0 8 -4
11 -10z m-405 -25 c0 -16 -6 -25 -15 -25 -9 0 -15 9 -15 25 0 16 6 25 15 25 9
0 15 -9 15 -25z m308 -12 c3 -22 0 -25 -18 -20 -17 4 -20 1 -18 -16 2 -14 -3
-23 -14 -25 -24 -5 -23 21 2 43 11 10 22 26 26 37 7 24 17 16 22 -19z m-198
-63 c0 -33 -4 -60 -10 -60 -5 0 -10 9 -10 19 0 11 -6 21 -12 24 -10 4 -10 7 0
18 6 7 12 23 12 36 0 13 5 23 10 23 6 0 10 -27 10 -60z m264 44 c10 -25 7 -34
-9 -28 -8 4 -15 15 -15 25 0 23 16 25 24 3z m-342 -32 c-2 -11 2 -23 8 -27 5
-3 10 -23 10 -44 0 -20 5 -42 11 -48 6 -6 9 -23 7 -39 -4 -26 -5 -27 -13 -9
-5 11 -18 34 -30 50 -17 25 -21 41 -17 88 3 38 8 57 15 54 7 -2 11 -13 9 -25z
m518 13 c10 -12 10 -19 2 -27 -13 -13 -42 6 -42 28 0 19 24 18 40 -1z m-390
-19 c5 -13 14 -27 19 -31 16 -9 13 -52 -3 -58 -18 -7 -40 18 -33 38 4 8 2 17
-3 20 -13 8 -13 55 0 55 6 0 15 -11 20 -24z m-2710 10 c0 -3 -4 -8 -10 -11 -5
-3 -10 -1 -10 4 0 6 5 11 10 11 6 0 10 -2 10 -4z m3148 -73 c-4 -22 -22 -20
-26 1 -2 10 3 16 13 16 10 0 15 -7 13 -17z m-628 -23 c0 -11 -4 -20 -10 -20
-5 0 -10 9 -10 20 0 11 5 20 10 20 6 0 10 -9 10 -20z m-2090 -15 c16 -19 4
-35 -25 -35 -27 0 -39 14 -31 35 7 19 40 19 56 0z m1040 6 c0 -15 -42 -41 -66
-41 -22 0 -39 24 -28 41 7 12 94 12 94 0z m-110 -21 c0 -14 -39 -42 -49 -35
-16 10 -13 33 6 43 17 10 43 5 43 -8z m2078 2 c2 -7 -3 -12 -12 -12 -9 0 -16
7 -16 16 0 17 22 14 28 -4z m-2888 -12 c19 -5 42 -18 52 -30 22 -27 38 -25 38
4 0 36 35 44 72 16 l31 -23 86 18 c116 23 341 38 358 23 18 -14 7 -28 -23 -28
-13 0 -32 -9 -42 -21 -25 -30 -110 -89 -127 -89 -9 0 -21 11 -27 25 -13 29
-46 41 -85 29 -42 -12 -64 -15 -111 -18 -24 -1 -47 -8 -52 -15 -6 -10 -12 -10
-28 -2 -36 19 -109 14 -131 -10 -28 -31 -51 -20 -68 30 -8 25 -22 56 -31 69
-13 20 -13 25 -1 33 8 5 23 7 34 3 11 -3 36 -9 55 -14z m2018 -40 c19 -35 19
-60 1 -60 -5 0 -9 12 -9 26 0 24 -3 26 -29 21 -30 -6 -51 7 -51 34 0 12 9 16
35 15 29 -1 38 -7 53 -36z m616 8 c3 -15 0 -27 -9 -34 -8 -6 -15 -21 -15 -33
0 -15 -6 -21 -21 -21 -16 0 -19 4 -14 18 4 9 11 29 15 44 16 53 34 63 44 26z
m-487 -3 c3 -9 3 -19 -1 -22 -7 -7 -36 16 -36 28 0 15 30 10 37 -6z m113 -40
c0 -12 11 -32 25 -45 29 -28 32 -50 7 -50 -22 0 -42 19 -42 38 0 8 -7 20 -16
27 -13 9 -15 20 -10 51 7 36 9 38 22 19 8 -10 14 -28 14 -40z m-2412 27 c5
-15 -23 -26 -45 -17 -17 6 -17 7 2 21 21 16 37 14 43 -4z m-350 -10 c10 -7 9
-17 -3 -51 -8 -24 -15 -54 -15 -67 0 -18 -4 -22 -17 -16 -28 12 -83 45 -107
64 -18 15 -19 19 -6 28 22 15 51 12 72 -7 10 -9 18 -11 18 -5 0 6 4 22 10 36
10 27 25 32 48 18z m2832 -17 c0 -8 -4 -15 -10 -15 -5 0 -10 7 -10 15 0 8 5
15 10 15 6 0 10 -7 10 -15z m-345 -16 c12 -19 -5 -23 -22 -6 -16 16 -16 17 -1
17 9 0 20 -5 23 -11z m105 -19 c0 -5 -4 -10 -10 -10 -5 0 -10 5 -10 10 0 6 5
10 10 10 6 0 10 -4 10 -10z m-1750 -10 c0 -5 -9 -15 -19 -22 -15 -9 -18 -19
-14 -40 7 -37 -9 -36 -41 3 -28 33 -33 55 -13 62 22 10 87 7 87 -3z m2356 -17
c18 -23 17 -43 0 -43 -14 0 -26 21 -26 46 0 19 10 18 26 -3z m-306 -19 c0 -9
-5 -14 -12 -12 -18 6 -21 28 -4 28 9 0 16 -7 16 -16z m-2752 -13 c3 -8 -1 -12
-9 -9 -7 2 -15 10 -17 17 -3 8 1 12 9 9 7 -2 15 -10 17 -17z m481 0 c7 -13 6
-23 -4 -37 -15 -18 -16 -18 -35 5 -11 13 -20 29 -20 37 0 21 48 17 59 -5z
m1921 -6 c5 -14 16 -25 25 -25 8 0 15 -7 15 -15 0 -8 -7 -15 -15 -15 -18 0
-19 -12 -3 -28 8 -8 8 -15 -2 -27 -24 -28 -33 -17 -26 33 5 41 3 52 -14 67
-11 10 -17 22 -14 26 10 16 24 9 34 -16z m230 -16 c0 -24 -23 -21 -28 4 -2 10
3 17 12 17 10 0 16 -9 16 -21z m1225 -6 c40 -8 61 -35 35 -45 -13 -5 -17 -13
-13 -27 3 -13 1 -21 -7 -21 -11 0 -24 10 -81 63 -10 9 -19 24 -19 33 0 13 6
15 28 10 15 -4 40 -10 57 -13z m435 7 c0 -5 -4 -10 -10 -10 -5 0 -10 5 -10 10
0 6 5 10 10 10 6 0 10 -4 10 -10z m-1240 -31 c0 -23 -28 -26 -37 -3 -6 16 15
37 29 28 4 -3 8 -14 8 -25z m-60 11 c0 -5 -4 -10 -10 -10 -5 0 -10 5 -10 10 0
6 5 10 10 10 6 0 10 -4 10 -10z m-480 -21 c0 -5 -4 -9 -10 -9 -5 0 -10 7 -10
16 0 8 5 12 10 9 6 -3 10 -10 10 -16z m140 -24 c0 -28 -15 -34 -24 -9 -10 25
-7 34 9 34 9 0 15 -9 15 -25z m760 4 c0 -11 -27 -12 -34 0 -3 4 -3 11 0 14 8
8 34 -3 34 -14z m666 -21 c88 -43 119 -82 110 -142 -6 -37 -3 -48 19 -74 23
-28 25 -36 25 -138 -1 -71 -5 -117 -14 -133 -19 -35 -29 -12 -28 70 1 51 -6
89 -26 146 -32 91 -68 163 -82 163 -5 0 -21 20 -35 44 -14 24 -37 52 -50 60
-14 9 -25 21 -25 26 0 19 40 10 106 -22z m252 19 c7 -8 8 -18 1 -27 -8 -13
-11 -12 -24 4 -22 29 0 51 23 23z m-4322 -29 c4 -6 0 -16 -9 -23 -10 -7 -17
-22 -17 -34 0 -15 -9 -25 -30 -32 -43 -16 -39 -45 15 -95 25 -23 45 -44 45
-48 0 -3 -16 -6 -34 -6 -28 0 -40 7 -62 35 -32 42 -55 57 -73 46 -18 -11 14
-61 39 -61 24 0 76 -88 61 -103 -8 -8 -17 -7 -33 0 -36 18 -76 24 -83 13 -3
-5 -17 -10 -29 -10 -15 0 -26 -7 -29 -20 -3 -11 -12 -20 -21 -20 -20 0 -21 39
-1 46 19 8 19 28 0 44 -19 16 -20 44 -1 37 14 -6 26 12 26 38 0 21 -29 45 -56
45 -21 0 -24 5 -24 34 0 19 3 41 6 50 8 22 36 20 33 -1 -5 -52 1 -73 21 -73
24 0 24 -1 4 38 -19 39 -8 64 38 83 18 7 36 17 40 23 4 6 11 6 20 -2 8 -6 33
-14 56 -18 37 -6 42 -4 42 13 0 11 3 23 6 26 8 8 40 -8 50 -25z m2490 8 c12
-13 10 -19 -16 -48 -16 -18 -30 -36 -30 -41 0 -5 14 -22 30 -39 28 -28 30 -34
24 -74 -7 -46 -24 -70 -24 -34 0 27 -18 61 -41 78 -13 9 -17 22 -15 40 8 59
19 91 32 96 8 3 14 12 14 21 0 19 7 19 26 1z m79 -6 c6 -19 -21 -69 -37 -70
-12 0 -9 18 3 26 6 3 8 16 5 29 -9 36 18 51 29 15z m143 -28 c3 -9 -2 -13 -14
-10 -9 1 -19 9 -22 16 -3 9 2 13 14 10 9 -1 19 -9 22 -16z m-78 -7 c0 -9 -6
-12 -15 -9 -8 4 -15 10 -15 15 0 5 7 9 15 9 8 0 15 -7 15 -15z m810 6 c0 -6
-4 -13 -10 -16 -5 -3 -10 1 -10 9 0 9 5 16 10 16 6 0 10 -4 10 -9z m-1301 -76
c46 -62 51 -80 21 -70 -11 4 -20 2 -20 -4 0 -6 5 -11 10 -11 6 0 10 -13 10
-28 0 -17 10 -38 25 -52 14 -13 25 -27 25 -32 0 -5 9 -28 19 -51 28 -62 52
-163 45 -191 -3 -14 -15 -33 -26 -42 -16 -16 -21 -16 -28 -4 -13 20 -12 44 1
57 19 19 -29 73 -64 73 -29 0 -29 1 -24 41 4 29 -1 55 -14 86 -13 30 -17 57
-13 78 4 24 2 34 -10 38 -17 7 -22 37 -6 37 13 0 13 56 -1 81 -9 18 -7 49 4
49 2 0 23 -25 46 -55z m-1625 14 c-7 -11 -34 -12 -34 -1 0 14 11 21 26 15 8
-3 11 -9 8 -14z m1886 11 c0 -5 -5 -10 -11 -10 -5 0 -7 5 -4 10 3 6 8 10 11
10 2 0 4 -4 4 -10z m-2316 -15 c7 -18 -5 -24 -54 -27 -45 -4 -49 24 -5 33 48
10 53 10 59 -6z m2500 -1 c8 -22 8 -24 -8 -24 -18 0 -29 16 -21 30 9 15 22 12
29 -6z m1696 -54 c0 -5 -7 -10 -15 -10 -8 0 -15 5 -15 10 0 6 7 10 15 10 8 0
15 -4 15 -10z m-4023 -30 c14 -11 30 -20 34 -20 5 0 9 9 9 20 0 13 7 20 20 20
26 0 35 -22 20 -49 -13 -25 -71 -29 -90 -6 -7 8 -21 15 -31 15 -26 0 -33 17
-12 29 23 14 21 14 50 -9z m4123 0 c0 -5 -2 -10 -4 -10 -3 0 -8 5 -11 10 -3 6
-1 10 4 10 6 0 11 -4 11 -10z m-1980 -10 c0 -5 -4 -10 -10 -10 -5 0 -10 5 -10
10 0 6 5 10 10 10 6 0 10 -4 10 -10z m2168 -2 c14 -14 16 -48 4 -48 -20 0 -45
28 -39 44 8 19 19 20 35 4z m-210 -17 c25 -22 29 -41 8 -41 -22 0 -60 35 -52
48 10 16 17 15 44 -7z m-3918 -21 c0 -5 -4 -10 -10 -10 -5 0 -10 5 -10 10 0 6
5 10 10 10 6 0 10 -4 10 -10z m3258 -21 c33 -32 40 -53 21 -65 -16 -9 -69 46
-69 73 0 31 10 29 48 -8z m342 -4 c6 -8 10 -19 8 -24 -1 -5 -11 2 -21 15 -19
26 -8 34 13 9z m244 -1 c10 -25 7 -34 -9 -28 -8 4 -15 15 -15 25 0 23 16 25
24 3z m-810 -10 c22 -8 20 -34 -1 -34 -19 1 -53 22 -53 34 0 8 33 8 54 0z
m406 -29 c0 -20 -10 -19 -26 3 -19 25 -17 34 6 22 11 -6 20 -17 20 -25z m65
-32 c-10 -57 -13 -63 -30 -57 -17 7 -20 39 -5 49 6 3 10 15 10 26 0 10 7 19
15 19 13 0 15 -8 10 -37z m-1455 15 c0 -7 3 -24 7 -38 6 -25 6 -25 -15 -6 -25
22 -29 56 -7 56 8 0 15 -6 15 -12z m2039 -2 c9 -11 10 -20 1 -36 -6 -11 -8
-35 -4 -54 9 -52 -2 -76 -37 -76 -22 0 -34 8 -49 33 -25 41 -25 45 3 49 17 2
25 13 34 48 6 25 12 46 12 48 3 8 30 0 40 -12z m-1969 -16 c0 -5 -4 -10 -10
-10 -5 0 -10 5 -10 10 0 6 5 10 10 10 6 0 10 -4 10 -10z m1786 -14 c6 -16 -12
-56 -25 -56 -16 0 -23 52 -9 61 19 12 28 11 34 -5z m-4451 -66 c13 -44 15 -64
7 -72 -14 -14 -52 -4 -80 22 -28 27 -26 89 4 101 42 17 50 10 69 -51z m4145
29 c10 -18 9 -20 -7 -17 -10 2 -19 11 -21 21 -5 24 15 21 28 -4z m-2780 -9 c0
-5 -2 -10 -4 -10 -3 0 -8 5 -11 10 -3 6 -1 10 4 10 6 0 11 -4 11 -10z m3030
-50 c0 -5 -4 -10 -9 -10 -6 0 -13 5 -16 10 -3 6 1 10 9 10 9 0 16 -4 16 -10z
m-209 -32 c44 2 81 -30 60 -51 -9 -9 -19 -8 -43 6 -28 16 -33 16 -40 3 -6 -10
-23 -16 -47 -16 -30 0 -42 6 -55 25 -24 37 -12 49 43 40 25 -5 62 -8 82 -7z
m-3943 -40 c-7 -20 -48 -23 -48 -4 0 11 9 16 26 16 16 0 24 -5 22 -12z m3707
2 c3 -5 23 -14 45 -20 35 -9 90 -58 90 -80 0 -5 -15 -14 -34 -20 -28 -9 -40
-8 -63 4 -41 23 -73 52 -73 68 0 8 -5 19 -11 25 -6 6 -8 16 -5 22 9 14 43 14
51 1z m-1660 -20 c3 -5 2 -10 -4 -10 -5 0 -13 5 -16 10 -3 6 -2 10 4 10 5 0
13 -4 16 -10z m315 0 c0 -5 -4 -10 -10 -10 -5 0 -10 5 -10 10 0 6 5 10 10 10
6 0 10 -4 10 -10z m-2726 -16 c24 -23 19 -35 -9 -22 -14 6 -25 17 -25 25 0 18
15 17 34 -3z m4511 0 c17 -11 29 -13 38 -7 6 6 36 11 65 12 l52 1 0 -34 c0
-33 -23 -56 -35 -36 -4 6 -21 10 -40 10 -29 0 -34 -4 -37 -27 -2 -20 -9 -29
-24 -31 -18 -3 -23 5 -33 43 -6 25 -18 48 -26 51 -20 8 -19 34 0 34 9 0 27 -7
40 -16z m-535 -4 c0 -5 -7 -10 -15 -10 -8 0 -15 5 -15 10 0 6 7 10 15 10 8 0
15 -4 15 -10z m774 4 c23 -9 19 -29 -8 -44 -21 -11 -27 -10 -42 5 -17 17 -17
18 1 31 21 16 27 17 49 8z m-2424 -23 c0 -4 16 -25 35 -45 42 -45 45 -63 8
-41 -32 19 -75 74 -67 87 7 11 24 10 24 -1z m-2200 -36 c7 -8 23 -15 36 -15
13 0 24 -4 24 -10 0 -5 -18 -10 -39 -10 -22 0 -43 -4 -46 -10 -13 -20 -50 -10
-62 17 -7 15 -13 31 -13 35 0 15 87 9 100 -7z m3900 -40 c0 -16 -17 -19 -44
-9 -26 10 -18 24 14 24 20 0 30 -5 30 -15z m428 2 c40 -3 23 -22 -20 -22 -34
0 -43 4 -46 19 -3 16 0 18 19 12 13 -4 34 -8 47 -9z m-3968 -47 c0 -11 -4 -20
-10 -20 -5 0 -10 9 -10 20 0 11 5 20 10 20 6 0 10 -9 10 -20z m3398 4 c30 -21
30 -49 0 -39 -13 4 -39 8 -58 9 -28 1 -36 5 -38 24 -3 19 1 22 35 22 21 0 49
-7 61 -16z m-3708 -4 c0 -5 -7 -10 -15 -10 -8 0 -15 5 -15 10 0 6 7 10 15 10
8 0 15 -4 15 -10z m4006 -5 c2 -5 -3 -19 -11 -30 -14 -18 -16 -18 -31 -3 -22
22 -11 50 18 46 12 -2 23 -7 24 -13z m144 5 c0 -5 -9 -10 -20 -10 -11 0 -20 5
-20 10 0 6 9 10 20 10 11 0 20 -4 20 -10z m-3923 -20 c13 -20 8 -50 -8 -50 -5
0 -9 9 -9 19 0 10 -7 22 -16 25 -8 3 -12 10 -9 16 10 16 29 12 42 -10z m4063
0 c0 -5 -4 -10 -10 -10 -5 0 -10 5 -10 10 0 6 5 10 10 10 6 0 10 -4 10 -10z
m155 0 c3 -6 -4 -10 -17 -10 -18 0 -20 2 -8 10 19 12 18 12 25 0z m-212 -10
c10 0 17 -8 17 -20 0 -11 -3 -20 -7 -20 -21 0 -83 22 -83 29 0 15 15 22 35 17
11 -3 28 -6 38 -6z m-303 -20 c0 -11 -4 -20 -9 -20 -13 0 -32 26 -24 33 13 14
33 6 33 -13z m-52 -20 c12 -20 52 -28 52 -11 0 12 63 21 74 10 6 -6 2 -15 -10
-24 -13 -10 -15 -17 -8 -22 20 -14 26 -50 9 -57 -11 -4 -19 2 -25 19 -15 39
-39 43 -66 12 -18 -21 -32 -27 -64 -27 -29 0 -40 4 -40 15 0 10 -10 15 -31 15
-16 0 -28 4 -25 9 3 5 -6 12 -20 15 -34 9 -28 37 11 47 26 8 48 6 98 -8 11 -3
17 1 17 11 0 22 13 20 28 -4z m437 10 c-3 -5 -10 -10 -16 -10 -5 0 -9 5 -9 10
0 6 7 10 16 10 8 0 12 -4 9 -10z m-4185 -24 c0 -18 -39 -31 -52 -18 -15 15 0
32 28 32 14 0 24 -6 24 -14z m90 -22 c0 -16 -16 -19 -25 -4 -8 13 4 32 16 25
5 -4 9 -13 9 -21z m3470 5 c0 -5 -4 -9 -10 -9 -18 0 -10 -22 10 -27 12 -3 20
-14 20 -27 0 -29 47 -57 59 -37 10 15 44 -4 96 -52 25 -23 28 -29 15 -37 -22
-14 -40 -12 -40 5 0 12 -13 15 -55 15 -51 0 -55 2 -55 23 0 20 -4 23 -30 19
-23 -3 -30 0 -30 12 0 9 7 16 15 16 10 0 7 7 -9 25 -13 14 -28 25 -35 25 -6 0
-11 5 -11 10 0 6 5 10 10 10 6 0 10 8 10 18 0 10 3 21 6 25 8 8 34 -3 34 -14z
m476 -16 c-3 -3 -22 -2 -42 2 -26 4 -33 9 -24 15 13 8 75 -8 66 -17z m-88 5
c-6 -18 -25 -20 -31 -3 -5 10 0 15 14 15 12 0 19 -5 17 -12z m232 -43 c0 -16
-27 -27 -36 -14 -3 5 -3 16 0 24 6 17 36 9 36 -10z m105 5 c7 0 19 -15 26 -32
7 -18 14 -36 17 -40 2 -5 -3 -8 -11 -8 -9 0 -17 -4 -19 -8 -1 -4 -17 -18 -34
-30 l-32 -22 -4 25 c-6 28 -1 35 23 35 32 0 30 18 -8 55 l-38 37 34 -6 c18 -3
39 -6 46 -6z m-274 -30 c10 -6 19 -19 19 -30 0 -13 12 -25 35 -34 28 -12 34
-20 33 -43 -1 -15 0 -34 3 -42 2 -7 -2 -16 -9 -18 -8 -3 -16 4 -19 16 -4 16
-13 21 -37 21 -36 0 -76 42 -76 80 0 15 -6 20 -26 20 -23 0 -25 -3 -20 -26 6
-24 -7 -54 -23 -54 -3 0 -12 14 -19 30 -11 25 -11 35 -1 60 8 16 20 31 29 33
23 7 89 -2 111 -13z m379 6 c0 -8 -4 -18 -10 -21 -5 -3 -10 -4 -10 -1 0 2 -3
11 -6 20 -4 11 -1 16 10 16 9 0 16 -6 16 -14z m-300 -11 c7 -9 10 -18 7 -22
-8 -7 -37 15 -37 28 0 14 16 11 30 -6z m50 -35 c0 -5 -7 -10 -15 -10 -8 0 -15
5 -15 10 0 6 7 10 15 10 8 0 15 -4 15 -10z m-350 -20 c0 -5 -4 -10 -10 -10 -5
0 -10 5 -10 10 0 6 5 10 10 10 6 0 10 -4 10 -10z m-1350 -26 c0 -14 4 -33 9
-43 6 -10 6 -23 1 -32 -15 -23 -44 3 -51 47 -8 46 -5 54 22 54 14 0 19 -7 19
-26z m1760 19 c-1 -16 -28 -43 -44 -43 -19 0 -20 4 -6 31 10 18 50 28 50 12z
m205 -23 c3 6 18 -4 32 -21 22 -25 24 -32 12 -40 -24 -15 -43 -10 -78 22 -25
24 -30 33 -20 39 7 5 21 4 30 -1 11 -6 20 -5 24 1z m-555 -10 c0 -5 -9 -10
-19 -10 -11 0 -23 5 -26 10 -4 6 5 10 19 10 14 0 26 -4 26 -10z m-2327 -31
c79 -41 114 -70 132 -109 21 -46 14 -62 -23 -54 -44 11 -54 24 -47 61 3 20 2
33 -4 33 -6 0 -8 -7 -4 -16 10 -25 -20 -12 -33 15 -7 12 -28 34 -48 47 -35 24
-47 44 -26 44 6 0 30 -10 53 -21z m1055 -17 c3 -19 -1 -23 -15 -20 -10 2 -19
14 -21 26 -3 19 1 23 15 20 10 -2 19 -14 21 -26z m1590 -26 c3 -22 0 -27 -14
-24 -27 5 -42 36 -24 48 22 14 35 7 38 -24z m-288 14 c0 -5 -7 -10 -15 -10 -8
0 -15 5 -15 10 0 6 7 10 15 10 8 0 15 -4 15 -10z m148 -8 c3 -9 -2 -13 -14
-10 -9 1 -19 9 -22 16 -3 9 2 13 14 10 9 -1 19 -9 22 -16z m-1061 -24 c32 -29
29 -38 -12 -38 -33 0 -55 20 -55 49 0 19 43 12 67 -11z m673 -4 c0 -8 -4 -14
-9 -14 -11 0 -22 26 -14 34 9 9 23 -3 23 -20z m660 18 c0 -19 -23 -32 -37 -21
-20 17 -15 29 12 29 14 0 25 -4 25 -8z m180 -2 c0 -5 -4 -10 -10 -10 -5 0 -10
5 -10 10 0 6 5 10 10 10 6 0 10 -4 10 -10z m-940 -10 c0 -5 -4 -10 -10 -10 -5
0 -10 5 -10 10 0 6 5 10 10 10 6 0 10 -4 10 -10z m-1293 -20 c3 -11 9 -20 14
-20 5 0 9 -7 9 -15 0 -8 -3 -15 -7 -15 -16 1 -53 39 -53 54 0 23 31 20 37 -4z
m47 13 c4 -5 17 -8 29 -8 14 0 23 -9 28 -29 5 -17 7 -31 6 -33 -2 -1 -18 11
-36 27 -18 17 -39 30 -47 30 -8 0 -14 5 -14 10 0 12 23 13 34 3z m186 -7 c0
-7 9 -16 20 -19 15 -4 20 -14 20 -41 0 -20 -4 -36 -9 -36 -20 0 -43 34 -38 57
3 15 -1 27 -9 30 -19 7 -18 23 1 23 8 0 15 -6 15 -14z m202 -9 c29 -46 -56
-99 -94 -58 -11 12 -10 13 6 7 17 -6 18 -2 13 35 l-5 41 36 -7 c20 -4 40 -12
44 -18z m913 13 c-3 -5 -13 -10 -21 -10 -8 0 -14 5 -14 10 0 6 9 10 21 10 11
0 17 -4 14 -10z m-1164 -70 c5 0 9 -4 9 -10 0 -14 -22 -12 -42 4 -17 12 -17
15 0 47 l17 34 3 -37 c2 -21 7 -38 13 -38z m1480 44 c10 -13 10 -17 -2 -25 -8
-5 -21 -9 -29 -9 -19 0 -60 28 -60 41 0 16 76 10 91 -7z m-1845 -25 c10 -17
-13 -36 -27 -22 -12 12 -4 33 11 33 5 0 12 -5 16 -11z m794 -4 c0 -8 -7 -15
-15 -15 -16 0 -20 12 -8 23 11 12 23 8 23 -8z m1218 -12 c3 -18 -2 -23 -17
-23 -12 0 -21 5 -21 10 0 6 -7 10 -15 10 -8 0 -15 6 -15 14 0 8 11 13 33 12
25 -1 33 -6 35 -23z m-1898 7 c0 -5 -4 -10 -10 -10 -5 0 -10 5 -10 10 0 6 5
10 10 10 6 0 10 -4 10 -10z m1940 -8 c0 -10 7 -27 15 -39 22 -31 1 -38 -27
-10 -19 19 -22 28 -15 46 12 26 27 28 27 3z m310 3 c7 -9 10 -18 7 -22 -8 -7
-37 15 -37 28 0 14 16 11 30 -6z m-2425 -15 c-3 -5 -10 -10 -16 -10 -5 0 -9 5
-9 10 0 6 7 10 16 10 8 0 12 -4 9 -10z m915 2 c0 -10 -22 -32 -32 -32 -4 0 -8
9 -8 20 0 13 7 20 20 20 11 0 20 -4 20 -8z m65 -2 c-3 -5 -10 -10 -16 -10 -5
0 -9 5 -9 10 0 6 7 10 16 10 8 0 12 -4 9 -10z m856 -21 c21 -23 33 -29 46 -24
17 8 17 8 -2 13 -11 2 -23 9 -27 15 -10 16 2 30 15 18 7 -5 36 -8 65 -6 39 2
55 -1 59 -11 3 -8 14 -14 24 -14 10 0 19 -5 19 -10 0 -7 -18 -8 -50 -4 -55 7
-71 -9 -19 -20 18 -3 29 -11 27 -18 -7 -21 -41 -22 -55 -2 -12 16 -16 17 -35
5 -18 -11 -22 -11 -31 4 -7 13 -17 15 -43 10 -33 -6 -34 -5 -34 24 0 18 -7 34
-17 40 -16 9 -15 10 6 11 15 0 35 -12 52 -31z m-1545 -67 c-4 -3 -12 0 -18 6
-9 9 -8 18 2 39 l14 28 4 -33 c2 -19 1 -37 -2 -40z m1484 41 c0 -9 -6 -12 -17
-9 -10 3 -31 8 -46 12 -38 9 -17 21 28 16 22 -3 35 -10 35 -19z m430 12 c7 -9
10 -18 7 -21 -10 -11 -37 5 -37 21 0 19 14 19 30 0z m-1468 -15 c22 0 24 -16
3 -24 -23 -9 -45 4 -45 27 0 16 3 18 12 9 7 -7 20 -12 30 -12z m-495 -5 c27
-9 1 -35 -34 -35 -19 0 -43 -4 -53 -10 -13 -7 -21 -5 -31 6 -11 14 -10 19 10
35 22 18 58 19 108 4z m-267 -5 c0 -5 -4 -10 -10 -10 -5 0 -10 5 -10 10 0 6 5
10 10 10 6 0 10 -4 10 -10z m650 6 c0 -11 -19 -15 -25 -6 -3 5 1 10 9 10 9 0
16 -2 16 -4z m275 -5 c3 -5 1 -13 -5 -16 -15 -9 -43 3 -35 15 8 13 32 13 40 1z
m-812 -10 c4 0 7 -6 7 -12 0 -14 -72 -7 -77 8 -4 10 30 12 70 4z m992 -18 c3
-9 4 -17 2 -19 -7 -7 -57 21 -57 32 0 17 48 5 55 -13z m-1597 -4 c11 -17 20
-20 43 -15 32 6 39 -8 11 -23 -12 -6 -29 -3 -56 10 -22 10 -46 19 -54 19 -12
0 -12 3 -2 15 18 21 43 19 58 -6z m1471 -18 c-16 -5 -33 15 -24 30 6 9 12 7
22 -7 9 -13 10 -20 2 -23z m181 29 c0 -5 -4 -10 -10 -10 -5 0 -10 5 -10 10 0
6 5 10 10 10 6 0 10 -4 10 -10z m560 0 c0 -5 -4 -10 -10 -10 -5 0 -10 5 -10
10 0 6 5 10 10 10 6 0 10 -4 10 -10z m375 -10 c16 -18 16 -20 2 -20 -19 0 -23
-15 -7 -25 20 -12 10 -27 -15 -21 -14 4 -34 1 -45 -6 -16 -10 -22 -10 -28 -1
-4 6 -15 11 -24 10 -9 -1 -17 3 -17 8 -1 6 5 10 12 10 25 1 87 36 87 50 0 21
14 19 35 -5z m-4100 -17 c41 -47 30 -58 -19 -19 -16 13 -25 29 -22 35 10 16
14 14 41 -16z m71 0 c7 -10 14 -29 14 -43 l0 -25 -25 29 c-26 31 -33 56 -14
56 7 0 18 -8 25 -17z m52 -6 c5 -24 -15 -21 -21 4 -3 13 -1 19 6 16 7 -2 13
-11 15 -20z m4212 14 c0 -17 -12 -41 -20 -41 -10 0 -20 37 -12 44 9 9 32 7 32
-3z m-1174 -28 c-10 -10 -19 5 -10 18 6 11 8 11 12 0 2 -7 1 -15 -2 -18z m736
14 c24 1 39 -4 43 -14 3 -9 4 -17 2 -19 -7 -7 -73 -6 -91 1 -17 8 -19 5 -12
-26 3 -19 13 -39 22 -46 9 -7 11 -13 5 -17 -11 -7 -51 28 -51 44 0 5 -11 12
-25 16 -30 7 -32 20 -5 27 12 3 20 14 20 27 0 19 3 21 28 14 15 -4 44 -8 64
-7z m-3649 -13 c9 -4 17 -13 17 -20 0 -18 -10 -18 -38 2 -23 16 -31 40 -9 30
6 -3 20 -9 30 -12z m1397 1 c0 -8 20 -23 44 -34 47 -20 48 -23 37 -103 -2 -17
-31 -6 -31 11 0 25 -20 38 -31 20 -6 -10 -9 -4 -9 19 0 25 -5 35 -20 39 -22 6
-23 8 -14 41 7 24 24 30 24 7z m470 5 c0 -5 -7 -10 -15 -10 -8 0 -15 5 -15 10
0 6 7 10 15 10 8 0 15 -4 15 -10z m1105 0 c3 -5 1 -10 -4 -10 -6 0 -11 5 -11
10 0 6 2 10 4 10 3 0 8 -4 11 -10z m956 -5 c0 -5 -9 -11 -21 -13 -15 -3 -18 1
-14 13 7 17 35 17 35 0z m-3056 -16 c10 -15 -1 -23 -20 -15 -9 3 -13 10 -10
16 8 13 22 13 30 -1z m1225 1 c0 -6 10 -8 23 -5 30 8 78 -28 61 -45 -9 -9 -19
-8 -44 5 -33 17 -86 17 -83 0 1 -5 3 -17 5 -25 4 -21 -23 -19 -36 4 -8 14 -8
20 2 23 7 3 17 16 22 29 9 24 50 35 50 14z m465 0 c3 -5 17 -10 30 -10 13 0
27 -5 31 -11 3 -6 17 -8 30 -5 29 8 64 -9 64 -30 0 -21 -22 -27 -53 -15 -24 9
-27 8 -27 -9 0 -24 -8 -25 -29 -5 -9 8 -25 22 -37 33 -11 10 -33 18 -49 18
-15 -1 -30 5 -32 12 -3 7 5 12 21 12 14 0 26 5 26 10 0 6 4 10 9 10 6 0 13 -4
16 -10z m807 -16 c9 -20 9 -27 -2 -34 -18 -11 -42 -1 -36 16 3 7 1 16 -4 19
-17 11 -11 25 10 25 12 0 25 -10 32 -26z m128 11 c0 -8 -4 -15 -10 -15 -5 0
-10 7 -10 15 0 8 5 15 10 15 6 0 10 -7 10 -15z m795 5 c3 -5 1 -10 -4 -10 -6
0 -11 5 -11 10 0 6 2 10 4 10 3 0 8 -4 11 -10z m-4335 -25 c0 -27 -6 -30 -29
-16 -17 11 -7 41 14 41 9 0 15 -9 15 -25z m148 13 c-6 -18 -28 -21 -28 -4 0 9
7 16 16 16 9 0 14 -5 12 -12z m476 -20 c-5 -17 -3 -20 11 -14 22 8 44 -19 45
-56 0 -36 -17 -36 -38 2 -9 16 -27 30 -40 32 -12 2 -23 8 -23 13 0 6 -5 16
-11 23 -6 7 -8 16 -4 19 4 4 11 2 15 -5 6 -10 11 -10 21 2 16 21 33 10 24 -16z
m1654 14 c2 -7 -6 -12 -17 -12 -21 0 -27 11 -14 24 9 9 26 2 31 -12z m-2060
-3 c33 -11 34 -22 2 -39 -15 -8 -23 -5 -40 12 -35 38 -22 48 38 27z m957 -24
c0 -28 -2 -30 -37 -28 -41 3 -43 1 -28 -28 9 -16 7 -19 -11 -19 -17 0 -20 5
-16 21 4 15 -1 22 -19 29 -14 6 -24 18 -24 30 0 24 25 27 38 4 12 -22 48 -14
44 10 -3 14 3 17 25 14 24 -3 28 -8 28 -33z m103 12 c2 -11 -3 -17 -16 -17
-11 0 -22 -6 -25 -12 -2 -7 -8 -10 -12 -5 -13 11 17 58 34 55 9 -2 17 -11 19
-21z m549 2 c34 -9 41 -14 34 -27 -5 -8 -6 -24 -3 -34 4 -16 0 -19 -19 -16
-19 2 -23 8 -21 29 3 23 -1 27 -30 32 -18 2 -36 3 -40 1 -11 -7 4 -44 18 -44
8 0 14 -4 14 -9 0 -5 -14 -9 -31 -9 -24 1 -36 8 -48 30 -11 20 -22 27 -36 24
-11 -2 -29 -1 -40 3 -19 8 -19 8 3 20 12 6 32 9 44 6 13 -2 39 -1 58 4 19 5
40 7 45 5 6 -1 29 -8 52 -15z m570 7 c3 -3 -3 -6 -14 -6 -11 0 -25 -10 -31
-25 -16 -35 -32 -31 -32 8 0 33 1 34 35 32 20 -1 39 -5 42 -9z m846 -9 l30 6
-8 -39 c-4 -21 -9 -42 -11 -46 -8 -13 -34 -9 -34 5 -1 21 -36 61 -44 48 -4 -6
0 -14 8 -17 9 -3 16 -12 16 -20 0 -17 -17 -18 -23 -1 -3 9 -9 9 -27 -2 -21
-12 -25 -11 -37 5 -7 10 -13 24 -13 31 0 7 -4 13 -10 13 -5 0 -7 -6 -5 -12 7
-18 -11 -42 -24 -34 -6 4 -11 18 -11 30 0 18 7 25 31 30 34 6 53 0 44 -15 -14
-22 16 -7 31 16 15 22 18 23 36 10 13 -9 32 -12 51 -8z m-2705 -3 c14 -10 21
-22 18 -31 -4 -9 8 -28 31 -49 31 -29 34 -34 18 -40 -11 -5 -21 -1 -27 9 -5
10 -15 17 -23 17 -8 0 -21 11 -30 23 -8 13 -26 29 -40 35 -31 14 -32 39 -2 45
12 2 24 5 27 6 3 0 16 -6 28 -15z m-118 -9 c0 -8 -5 -15 -11 -15 -5 0 -8 -4
-4 -9 5 -10 -13 -27 -21 -19 -6 6 19 58 29 58 4 0 7 -7 7 -15z m339 -14 c12
-16 21 -34 21 -40 0 -14 -17 -14 -25 0 -4 5 -18 14 -31 19 -14 6 -24 18 -24
30 0 30 35 25 59 -9z m1188 2 c4 -10 14 -24 22 -30 14 -11 14 -14 1 -23 -11
-7 -17 -4 -24 11 -6 12 -15 18 -24 14 -18 -7 -32 12 -25 32 7 19 42 16 50 -4z
m1857 -8 c17 0 18 -25 1 -25 -12 0 -15 -6 -10 -20 4 -11 2 -20 -4 -20 -6 0
-11 4 -11 9 0 4 -22 18 -50 29 -27 12 -50 26 -50 31 0 14 6 14 31 -1 18 -11
23 -10 32 4 9 13 15 14 31 5 12 -6 25 -11 30 -12z m-2914 -20 c0 -24 -1 -24
-19 -8 -21 18 -19 33 5 33 8 0 14 -10 14 -25z m1518 13 c18 -18 14 -38 -8 -38
-15 0 -20 7 -20 25 0 27 9 32 28 13z m1150 -1 c27 7 29 -16 6 -52 -16 -25 -16
-25 15 -31 37 -8 42 -34 7 -34 -14 0 -28 5 -31 10 -4 6 -11 8 -16 5 -5 -4 -12
1 -16 10 -3 10 0 21 8 26 25 15 -4 33 -31 19 -33 -18 -46 8 -18 37 15 16 25
20 38 13 9 -5 26 -6 38 -3z m-3212 -11 c15 -16 19 -46 6 -46 -5 0 -18 14 -30
30 -19 25 -20 30 -7 30 9 0 23 -6 31 -14z m1832 5 c9 -4 34 -16 55 -26 20 -10
37 -23 37 -28 0 -6 6 -18 14 -26 7 -9 16 -33 19 -53 6 -37 5 -38 -25 -38 -23
0 -29 4 -24 15 7 19 -43 93 -83 123 -18 13 -29 27 -26 33 8 11 11 11 33 0z
m306 -21 c8 -16 11 -30 6 -30 -14 0 -40 30 -40 46 0 24 18 16 34 -16z m908 -2
c3 -31 5 -33 36 -30 37 4 38 2 16 -39 -17 -34 -38 -33 -86 5 -31 24 -34 38
-14 56 8 6 12 18 9 26 -3 9 2 14 15 14 16 0 21 -7 24 -32z m483 20 c30 -13 33
-28 5 -28 -10 0 -24 9 -30 20 -12 23 -10 24 25 8z m-2905 -23 c-18 -22 -6 -41
34 -56 40 -14 45 -23 19 -33 -25 -10 -82 49 -75 77 5 22 23 40 31 32 2 -3 -2
-11 -9 -20z m318 7 c2 -7 -3 -12 -12 -12 -9 0 -16 7 -16 16 0 17 22 14 28 -4z
m2732 -2 c0 -5 -4 -10 -10 -10 -5 0 -10 5 -10 10 0 6 5 10 10 10 6 0 10 -4 10
-10z m-3185 -10 c3 -5 1 -10 -4 -10 -6 0 -11 5 -11 10 0 6 2 10 4 10 3 0 8 -4
11 -10z m815 -7 c0 -10 -12 -26 -25 -36 -22 -15 -25 -16 -25 -2 0 8 -5 15 -11
15 -7 0 -9 -10 -5 -25 7 -29 4 -30 -29 -9 -23 15 -23 17 -8 40 15 24 43 33 43
14 0 -16 30 -12 36 5 8 21 24 19 24 -2z m-450 -3 c0 -5 -7 -10 -15 -10 -8 0
-15 5 -15 10 0 6 7 10 15 10 8 0 15 -4 15 -10z m140 0 c0 -5 -9 -10 -20 -10
-11 0 -20 5 -20 10 0 6 9 10 20 10 11 0 20 -4 20 -10z m40 -6 c0 -8 -4 -12
-10 -9 -5 3 -10 10 -10 16 0 5 5 9 10 9 6 0 10 -7 10 -16z m340 6 c0 -5 -9
-10 -20 -10 -11 0 -20 5 -20 10 0 6 9 10 20 10 11 0 20 -4 20 -10z m1904 4
c20 -8 21 -34 1 -34 -8 0 -15 2 -15 4 0 2 -3 11 -6 20 -7 18 -4 19 20 10z
m669 -12 c31 -5 32 -8 12 -28 -12 -12 -19 -13 -37 -3 -37 19 -55 58 -20 44 9
-4 29 -10 45 -13z m-411 -16 c19 -27 4 -33 -37 -14 -26 11 -30 19 -18 31 9 9
46 -2 55 -17z m178 3 c0 -11 -27 -12 -34 0 -3 4 -3 11 0 14 8 8 34 -3 34 -14z
m-4040 -5 c0 -8 -4 -12 -10 -9 -5 3 -10 10 -10 16 0 5 5 9 10 9 6 0 10 -7 10
-16z m160 6 c0 -5 -7 -10 -15 -10 -8 0 -15 5 -15 10 0 6 7 10 15 10 8 0 15 -4
15 -10z m1120 -36 c0 -21 -17 -17 -34 8 -23 33 -20 41 9 22 14 -9 25 -23 25
-30z m140 31 c0 -8 -4 -15 -10 -15 -5 0 -10 7 -10 15 0 8 5 15 10 15 6 0 10
-7 10 -15z m428 3 c-3 -7 -13 -13 -23 -13 -10 0 -20 6 -22 13 -3 7 5 12 22 12
17 0 25 -5 23 -12z m85 -3 c-6 -18 -34 -16 -41 3 -2 7 6 12 22 12 19 0 24 -4
19 -15z m1269 -5 c10 0 18 5 18 10 0 6 7 10 15 10 9 0 12 -6 8 -16 -3 -9 3
-21 16 -30 23 -16 28 -34 10 -34 -6 0 -24 9 -40 21 -16 11 -29 17 -29 13 0 -4
-9 2 -20 14 -21 22 -28 44 -8 24 7 -7 20 -12 30 -12z m888 16 c0 -2 3 -11 6
-20 4 -10 1 -16 -9 -16 -17 0 -40 24 -30 33 7 8 33 10 33 3z m-1713 -68 c-3
-10 -1 -21 4 -24 15 -9 10 -26 -7 -22 -18 4 -47 76 -38 98 8 22 47 -28 41 -52z
m-1267 38 c0 -8 -5 -18 -10 -21 -13 -8 -42 14 -34 26 9 15 44 10 44 -5z m60 5
c0 -5 10 -11 22 -13 13 -2 24 -11 26 -21 4 -20 -30 -37 -36 -18 -2 7 -15 16
-28 21 -29 11 -32 40 -4 40 11 0 20 -4 20 -9z m1515 -11 c14 -15 15 -20 4 -20
-15 1 -49 23 -49 34 0 13 28 5 45 -14z m-2581 -5 c-4 -8 -15 -15 -25 -15 -27
0 -24 18 4 23 12 2 23 5 24 6 1 0 0 -6 -3 -14z m1268 2 c7 -6 27 -17 43 -22
34 -12 42 -42 10 -37 -11 2 -33 5 -49 6 -20 2 -32 10 -38 25 -13 37 7 54 34
28z m1085 7 c-3 -3 -12 -4 -19 -1 -8 3 -5 6 6 6 11 1 17 -2 13 -5z m-2178 -18
c13 -15 -4 -26 -40 -26 -22 0 -24 11 -7 28 16 16 33 15 47 -2z m412 -12 c32
-20 44 -23 54 -14 18 15 91 4 98 -15 3 -8 15 -11 31 -8 15 3 26 1 26 -5 0 -6
21 -23 48 -38 45 -26 82 -57 82 -69 0 -10 -56 -5 -83 8 -15 6 -25 17 -23 24 5
13 -35 43 -59 43 -8 0 -15 4 -15 10 0 5 -6 7 -13 4 -8 -3 -20 2 -27 11 -16 19
-44 19 -60 0 -18 -22 -27 -19 -70 25 -57 58 -54 65 11 24z m1052 4 c7 -10 22
-18 34 -18 13 0 23 -5 23 -11 0 -6 -13 -8 -37 -3 -21 4 -51 8 -68 8 -30 1 -55
16 -55 34 0 6 21 10 46 9 33 0 49 -5 57 -19z m793 -36 c14 -8 16 -14 8 -22 -8
-8 -15 -8 -25 3 -8 7 -21 16 -28 18 -8 3 -15 17 -17 33 l-3 28 23 -25 c12 -13
31 -29 42 -35z m49 48 c-3 -5 -10 -10 -16 -10 -5 0 -9 5 -9 10 0 6 7 10 16 10
8 0 12 -4 9 -10z m310 0 c3 -5 1 -10 -4 -10 -6 0 -11 5 -11 10 0 6 2 10 4 10
3 0 8 -4 11 -10z m-2509 -26 c19 -15 34 -33 34 -40 0 -18 -14 -18 -30 1 -7 8
-18 15 -24 15 -6 0 -20 7 -31 16 -17 13 -18 16 -5 24 20 13 17 14 56 -16z
m1125 -19 c43 -23 37 -40 -16 -42 l-44 -1 5 31 c3 18 8 39 11 47 5 12 7 12 10
-3 3 -9 18 -24 34 -32z m119 24 c0 -5 -7 -9 -15 -9 -15 0 -20 12 -9 23 8 8 24
-1 24 -14z m2512 4 c23 -21 23 -33 0 -33 -21 0 -42 18 -42 37 0 18 20 16 42
-4z m-3503 -19 c12 -14 20 -29 16 -32 -3 -4 -9 -2 -13 3 -4 6 -16 15 -26 21
-11 6 -22 16 -24 22 -7 22 24 12 47 -14z m2193 9 c10 -9 18 -22 18 -30 0 -18
-26 -17 -34 2 -3 8 -13 15 -22 15 -13 0 -14 3 -4 15 16 19 19 19 42 -2z m293
-31 c11 -17 25 -31 32 -32 6 0 14 -4 18 -9 10 -17 -11 -20 -39 -5 -16 7 -44
14 -62 14 -19 0 -34 5 -34 10 0 6 7 10 15 10 11 0 13 8 8 30 -5 28 -4 30 18
22 13 -5 33 -23 44 -40z m675 40 c0 -4 -5 -13 -12 -20 -9 -9 -9 -12 1 -12 7 0
9 -4 6 -10 -14 -22 -35 -10 -35 20 0 23 4 30 20 30 11 0 20 -4 20 -8z m157
-12 c28 -22 19 -26 -21 -10 -21 8 -26 7 -26 -6 0 -16 -21 -15 -27 2 -2 7 20
24 45 33 2 0 15 -8 29 -19z m-4077 -5 c0 -8 -4 -15 -10 -15 -5 0 -10 7 -10 15
0 8 5 15 10 15 6 0 10 -7 10 -15z m1700 -6 c0 -18 4 -21 29 -16 41 8 49 -17
11 -33 -32 -13 -54 -5 -46 16 3 7 -2 17 -11 22 -9 5 -13 14 -9 21 12 18 26 13
26 -10z m1340 -4 c0 -14 -4 -25 -10 -25 -5 0 -10 11 -10 25 0 14 5 25 10 25 6
0 10 -11 10 -25z m-3378 -8 c11 -18 10 -27 -5 -27 -17 0 -57 29 -57 42 0 13
52 1 62 -15z m438 13 c0 -5 -4 -10 -10 -10 -5 0 -10 5 -10 10 0 6 5 10 10 10
6 0 10 -4 10 -10z m2620 1 c0 -5 3 -16 6 -25 8 -22 -15 -20 -32 2 -19 24 -17
32 6 32 11 0 20 -4 20 -9z m150 -39 c2 -2 -2 -7 -10 -12 -11 -7 -19 -4 -29 8
-12 15 -12 15 -6 -5 5 -19 3 -23 -17 -23 -23 1 -58 21 -58 35 0 4 11 5 25 3
19 -4 25 -1 25 12 0 29 12 31 39 8 14 -13 28 -24 31 -26z m240 29 c16 -30 12
-41 -14 -41 -23 0 -36 16 -36 46 0 21 38 17 50 -5z m1027 13 c-3 -3 -12 -4
-19 -1 -8 3 -5 6 6 6 11 1 17 -2 13 -5z m-4203 -29 c3 -8 0 -17 -5 -21 -14 -8
-43 21 -35 35 8 13 33 4 40 -14z m3432 15 c8 0 14 -7 14 -16 0 -11 -5 -14 -16
-10 -9 3 -22 6 -30 6 -8 0 -14 7 -14 16 0 11 5 14 16 10 9 -3 22 -6 30 -6z
m254 -2 c0 -7 -5 -20 -10 -28 -7 -12 -12 -12 -22 -2 -9 9 -9 12 0 12 7 0 12 7
12 15 0 8 5 15 10 15 6 0 10 -6 10 -12z m-3895 -8 c3 -5 -1 -10 -9 -10 -9 0
-16 5 -16 10 0 6 4 10 9 10 6 0 13 -4 16 -10z m435 -5 c0 -8 -4 -15 -10 -15
-5 0 -10 7 -10 15 0 8 5 15 10 15 6 0 10 -7 10 -15z m160 -5 c0 -11 -7 -20
-15 -20 -17 0 -18 2 -9 24 9 23 24 20 24 -4z m76 9 c3 -6 1 -16 -5 -22 -9 -9
-14 -8 -21 3 -9 15 -4 30 10 30 5 0 12 -5 16 -11z m808 -40 c-3 -5 -9 -9 -13
-9 -11 0 -31 47 -23 55 9 9 43 -35 36 -46z m-750 20 c-3 -5 -10 -7 -15 -3 -5
3 -7 10 -3 15 3 5 10 7 15 3 5 -3 7 -10 3 -15z m691 1 c11 -9 13 -16 5 -24 -7
-7 -14 -6 -22 2 -7 7 -20 12 -30 12 -17 0 -24 11 -13 22 9 9 43 2 60 -12z
m-445 0 c0 -5 -4 -10 -10 -10 -5 0 -10 5 -10 10 0 6 5 10 10 10 6 0 10 -4 10
-10z m1276 -8 c13 -8 6 -82 -7 -82 -9 0 -11 5 -13 33 -1 6 -7 17 -15 23 -26
20 7 45 35 26z m134 -7 c18 -22 0 -37 -24 -20 -10 8 -15 18 -11 24 9 15 20 14
35 -4z m814 -16 c11 -23 13 -36 5 -50 -5 -10 -12 -19 -14 -19 -7 0 -45 39 -45
45 0 3 9 5 20 5 21 0 27 15 10 25 -9 6 -5 25 5 25 2 0 11 -14 19 -31z m-3224
12 c0 -12 -26 -32 -33 -25 -9 10 4 34 19 34 8 0 14 -4 14 -9z m664 2 c4 -5 13
-8 19 -8 5 0 12 -6 15 -12 2 -9 -7 -13 -27 -13 -24 0 -31 4 -31 20 0 20 11 26
24 13z m1204 -13 c3 -16 -36 -46 -46 -35 -4 3 -1 10 6 14 7 4 10 15 6 25 -5
14 -3 17 12 14 10 -2 20 -10 22 -18z m277 -5 c1 -11 4 -26 9 -33 11 -18 0 -42
-19 -42 -10 0 -15 10 -15 34 0 19 -3 42 -6 51 -5 13 -2 16 12 13 11 -2 19 -12
19 -23z m355 15 c0 -5 -4 -10 -10 -10 -5 0 -10 5 -10 10 0 6 5 10 10 10 6 0
10 -4 10 -10z m64 -7 c11 -27 -11 -40 -29 -17 -19 26 -19 34 4 34 10 0 22 -8
25 -17z m226 1 c0 -9 -5 -14 -12 -12 -18 6 -21 28 -4 28 9 0 16 -7 16 -16z
m145 -19 c37 -37 42 -54 24 -72 -19 -19 -39 -3 -45 38 -5 29 -11 39 -25 39
-11 0 -19 7 -19 15 0 25 28 17 65 -20z m785 21 c0 -7 7 -19 15 -26 19 -16 20
-40 1 -40 -18 0 -33 19 -41 53 -6 21 -4 27 9 27 9 0 16 -6 16 -14z m726 3 c9
-8 18 -8 27 -2 6 6 39 10 72 9 55 -1 60 -3 63 -25 6 -37 -10 -44 -57 -25 -40
16 -43 16 -56 -2 -15 -19 -15 -19 -30 1 -13 16 -17 17 -24 6 -5 -7 -6 -22 -4
-32 3 -10 0 -19 -6 -19 -10 0 -15 22 -14 58 1 17 -14 15 -21 -3 -6 -17 -36
-21 -36 -5 0 6 -11 16 -25 22 -14 6 -21 14 -16 17 18 11 114 11 127 0z m-3465
-9 c16 0 9 -29 -10 -39 -14 -8 -23 -6 -37 10 -16 17 -16 22 -4 30 8 5 21 7 28
4 8 -3 18 -5 23 -5z m1355 -17 c-10 -10 -19 5 -10 18 6 11 8 11 12 0 2 -7 1
-15 -2 -18z m324 13 c0 -8 -5 -18 -11 -21 -6 -5 -5 -11 5 -18 10 -8 13 -17 7
-26 -20 -32 -41 21 -25 63 8 20 24 21 24 2z m-960 -6 c0 -5 -4 -10 -10 -10 -5
0 -10 5 -10 10 0 6 5 10 10 10 6 0 10 -4 10 -10z m1980 -7 c0 -10 -14 -26 -30
-35 -27 -15 -32 -16 -37 -2 -3 8 -4 16 -2 18 21 16 55 36 61 36 5 0 8 -8 8
-17z m-180 -14 c0 -24 -23 -21 -28 4 -2 10 3 17 12 17 10 0 16 -9 16 -21z
m613 4 c4 -2 7 -14 7 -25 0 -19 -1 -20 -17 -6 -10 9 -38 19 -63 24 -40 6 -42
8 -20 15 23 7 75 2 93 -8z m-3829 -19 c6 -22 11 -25 31 -20 14 4 25 3 25 -2 0
-19 -26 -32 -63 -32 -36 0 -39 2 -32 23 4 12 7 30 6 40 0 27 26 20 33 -9z
m294 13 c11 -13 5 -57 -7 -57 -4 0 -13 11 -20 24 -20 36 3 63 27 33z m1232 3
c0 -5 -7 -10 -15 -10 -8 0 -15 5 -15 10 0 6 7 10 15 10 8 0 15 -4 15 -10z
m110 -19 c0 -34 -23 -47 -45 -25 -20 21 -19 29 8 42 33 16 37 15 37 -17z
m-380 8 c0 -5 14 -15 30 -20 19 -7 30 -18 30 -30 0 -22 -18 -26 -26 -5 -3 8
-19 20 -35 26 -29 12 -35 21 -22 33 10 10 23 8 23 -4z m438 -6 c2 -8 -5 -13
-17 -13 -12 0 -21 6 -21 16 0 18 31 15 38 -3z m2722 -4 c0 -5 -13 -9 -30 -9
-28 0 -38 9 -25 22 8 8 55 -3 55 -13z m-4000 1 c0 -5 -7 -10 -15 -10 -8 0 -15
5 -15 10 0 6 7 10 15 10 8 0 15 -4 15 -10z m1518 -2 c16 -16 15 -28 -3 -28 -8
0 -15 2 -15 4 0 2 -3 11 -6 20 -7 19 7 21 24 4z m122 -8 c0 -13 -7 -20 -20
-20 -11 0 -20 -4 -20 -10 0 -5 -7 -10 -15 -10 -20 0 -19 4 8 34 27 31 47 33
47 6z m160 10 c0 -5 -4 -10 -10 -10 -5 0 -10 5 -10 10 0 6 5 10 10 10 6 0 10
-4 10 -10z m580 -20 c0 -20 -5 -30 -15 -30 -18 0 -30 24 -21 45 10 28 36 17
36 -15z m380 20 c0 -5 -5 -10 -11 -10 -5 0 -7 5 -4 10 3 6 8 10 11 10 2 0 4
-4 4 -10z m80 0 c0 -5 -4 -10 -10 -10 -5 0 -10 5 -10 10 0 6 5 10 10 10 6 0
10 -4 10 -10z m-365 -16 c28 -18 33 -34 10 -34 -8 0 -15 5 -15 10 0 6 -7 10
-15 10 -8 0 -15 7 -15 15 0 19 5 19 35 -1z m525 -4 c0 -21 -15 -27 -25 -10 -7
12 2 30 16 30 5 0 9 -9 9 -20z m-3280 -5 c10 -12 10 -19 2 -27 -9 -9 -16 -7
-27 8 -8 10 -15 22 -15 27 0 13 27 7 40 -8z m640 5 c0 -5 -7 -10 -15 -10 -8 0
-15 5 -15 10 0 6 7 10 15 10 8 0 15 -4 15 -10z m662 -22 c-9 -9 -12 -7 -12 12
0 19 3 21 12 12 9 -9 9 -15 0 -24z m288 22 c0 -5 -7 -10 -16 -10 -8 0 -12 5
-9 10 3 6 10 10 16 10 5 0 9 -4 9 -10z m1000 0 c0 -5 -7 -7 -15 -4 -8 4 -15 8
-15 10 0 2 7 4 15 4 8 0 15 -4 15 -10z m1270 -16 c0 -17 -22 -14 -28 4 -2 7 3
12 12 12 9 0 16 -7 16 -16z m-3660 -4 c0 -5 -4 -10 -10 -10 -5 0 -10 5 -10 10
0 6 5 10 10 10 6 0 10 -4 10 -10z m3575 0 c-3 -5 -11 -10 -16 -10 -6 0 -7 5
-4 10 3 6 11 10 16 10 6 0 7 -4 4 -10z m-1835 -10 c0 -5 -4 -10 -10 -10 -5 0
-10 5 -10 10 0 6 5 10 10 10 6 0 10 -4 10 -10z m-1773 -6 c-3 -3 -12 -4 -19
-1 -8 3 -5 6 6 6 11 1 17 -2 13 -5z"/>
<path d="M3450 2026 c0 -7 7 -19 15 -26 16 -13 20 -3 9 24 -8 20 -24 21 -24 2z"/>
<path d="M3477 1973 c-12 -12 -7 -41 8 -47 12 -4 14 -15 9 -46 -5 -32 -3 -41
10 -46 12 -5 16 -14 12 -30 -6 -22 -4 -23 26 -17 38 7 60 23 41 30 -7 3 -13
15 -13 28 0 13 -8 31 -17 41 -10 10 -18 22 -18 28 -1 15 -35 66 -44 66 -4 0
-11 -3 -14 -7z"/>
<path d="M3494 1749 c-10 -17 -7 -70 5 -82 20 -20 32 7 25 51 -7 42 -17 52
-30 31z"/>
<path d="M3590 1733 c0 -5 5 -15 10 -23 7 -11 12 -12 21 -3 6 6 8 16 5 22 -8
12 -36 15 -36 4z"/>
<path d="M3176 1644 c-9 -24 -7 -54 4 -54 6 0 10 11 10 25 0 15 6 25 14 25 8
0 18 5 21 10 3 6 -5 10 -18 10 -14 0 -28 -7 -31 -16z"/>
<path d="M3286 1634 c-11 -28 -7 -44 9 -38 10 4 15 0 15 -15 0 -12 -4 -21 -10
-21 -5 0 -10 -4 -10 -10 0 -18 29 -10 35 10 6 20 -14 90 -26 90 -4 0 -10 -7
-13 -16z"/>
<path d="M3415 1631 c-6 -11 9 -23 19 -14 9 9 7 23 -3 23 -6 0 -12 -4 -16 -9z"/>
<path d="M3113 1606 c3 -20 -1 -38 -15 -57 l-20 -27 21 -21 c12 -12 21 -27 21
-35 0 -8 5 -18 10 -21 7 -4 9 2 5 18 -4 14 -1 35 5 47 8 15 9 25 2 32 -7 7 -7
16 0 28 9 14 6 22 -12 41 l-23 24 6 -29z"/>
<path d="M3676 1595 c4 -8 10 -15 15 -15 5 0 9 7 9 15 0 8 -7 15 -15 15 -9 0
-12 -6 -9 -15z"/>
<path d="M3530 1590 c0 -5 5 -10 10 -10 6 0 10 5 10 10 0 6 -4 10 -10 10 -5 0
-10 -4 -10 -10z"/>
<path d="M3350 1556 c0 -9 5 -16 10 -16 6 0 10 4 10 9 0 6 -4 13 -10 16 -5 3
-10 -1 -10 -9z"/>
<path d="M3662 1558 c-16 -16 -15 -47 2 -77 9 -17 15 -20 21 -11 4 6 2 17 -4
23 -16 16 -13 37 5 37 9 0 14 7 12 17 -4 21 -21 26 -36 11z"/>
<path d="M3330 1393 c0 -10 4 -25 10 -33 8 -12 10 -12 16 3 7 20 -1 47 -16 47
-5 0 -10 -8 -10 -17z"/>
<path d="M3223 1364 c-3 -8 -1 -20 6 -27 13 -13 16 -10 25 21 6 16 3 22 -9 22
-8 0 -18 -7 -22 -16z"/>
<path d="M3690 1340 c6 -11 20 -20 32 -20 l22 0 -22 20 c-12 11 -26 20 -32 20
-8 0 -8 -6 0 -20z"/>
<path d="M3590 1311 c0 -6 5 -13 10 -16 6 -3 10 1 10 9 0 9 -4 16 -10 16 -5 0
-10 -4 -10 -9z"/>
<path d="M3275 1259 c-4 -6 1 -17 11 -24 32 -24 42 -17 28 19 -7 18 -30 21
-39 5z"/>
<path d="M3620 1253 c0 -5 4 -15 10 -23 11 -18 25 -7 17 15 -6 15 -27 21 -27
8z"/>
<path d="M3690 1251 c0 -5 -3 -16 -6 -25 -4 -11 -1 -16 10 -16 10 0 16 9 16
25 0 14 -4 25 -10 25 -5 0 -10 -4 -10 -9z"/>
<path d="M3720 1172 c0 -4 6 -14 13 -21 6 -6 12 -28 12 -48 0 -20 6 -38 13
-40 18 -7 16 68 -4 95 -15 22 -34 30 -34 14z"/>
<path d="M3647 1110 c-7 -55 -1 -83 17 -77 15 5 15 119 0 124 -7 2 -14 -17
-17 -47z"/>
<path d="M3300 1098 c0 -9 7 -23 15 -32 8 -8 15 -19 15 -25 0 -5 5 -13 10 -16
20 -13 9 35 -15 62 -18 21 -24 24 -25 11z"/>
<path d="M3296 1001 c-4 -7 -5 -15 -2 -18 9 -9 19 4 14 18 -4 11 -6 11 -12 0z"/>
<path d="M3297 934 c-7 -7 14 -44 26 -44 12 0 4 43 -9 47 -5 2 -13 1 -17 -3z"/>
<path d="M3590 876 c0 -9 5 -16 10 -16 6 0 10 4 10 9 0 6 -4 13 -10 16 -5 3
-10 -1 -10 -9z"/>
<path d="M3606 824 c-8 -21 1 -34 25 -34 22 0 24 8 5 33 -16 21 -22 21 -30 1z"/>
<path d="M3570 740 c0 -19 3 -21 12 -12 9 9 9 15 0 24 -9 9 -12 7 -12 -12z"/>
<path d="M3660 742 c0 -4 7 -17 15 -29 10 -14 13 -32 9 -48 -5 -19 -2 -25 10
-25 14 0 16 7 10 38 -4 20 -11 45 -16 55 -9 17 -28 24 -28 9z"/>
<path d="M3215 690 c-4 -16 -12 -30 -18 -30 -8 0 -7 -4 1 -12 16 -16 28 -2 37
40 4 19 3 32 -3 32 -6 0 -13 -13 -17 -30z"/>
<path d="M3165 691 c-3 -5 -1 -12 5 -16 5 -3 10 1 10 9 0 18 -6 21 -15 7z"/>
<path d="M3848 546 c-17 -12 -17 -14 1 -30 16 -15 20 -15 31 -1 12 15 8 45 -7
45 -4 0 -16 -7 -25 -14z"/>
<path d="M3130 2025 c0 -8 5 -15 10 -15 6 0 10 7 10 15 0 8 -4 15 -10 15 -5 0
-10 -7 -10 -15z"/>
<path d="M194 1599 c-19 -21 -19 -21 6 -18 14 2 26 12 28 22 5 23 -11 22 -34
-4z"/>
<path d="M4740 1130 c0 -5 5 -10 10 -10 6 0 10 5 10 10 0 6 -4 10 -10 10 -5 0
-10 -4 -10 -10z"/>
<path d="M4510 746 c0 -8 5 -18 10 -21 6 -3 10 3 10 14 0 12 -4 21 -10 21 -5
0 -10 -6 -10 -14z"/>
<path d="M1195 3510 c3 -5 13 -10 21 -10 8 0 14 5 14 10 0 6 -9 10 -21 10 -11
0 -17 -4 -14 -10z"/>
<path d="M1443 3368 c21 -7 32 -7 40 1 8 8 0 11 -28 10 -40 -1 -40 -1 -12 -11z"/>
<path d="M1517 3283 c-18 -17 -1 -23 65 -23 42 0 68 4 63 9 -13 11 -120 23
-128 14z"/>
<path d="M4175 3280 c-7 -11 42 -26 53 -16 7 8 -17 26 -35 26 -6 0 -15 -4 -18
-10z"/>
<path d="M2734 3185 c-8 -32 5 -48 27 -32 15 12 15 14 -2 35 l-18 23 -7 -26z"/>
<path d="M2962 3148 c3 -7 19 -14 37 -16 24 -3 32 0 29 10 -3 7 -19 14 -37 16
-24 3 -32 0 -29 -10z"/>
<path d="M1 105 c-1 -29 13 -55 31 -55 14 0 9 28 -6 33 -8 3 -16 16 -19 29 -3
18 -5 17 -6 -7z"/>
<path d="M77 53 c-4 -3 -7 -14 -7 -24 0 -9 -6 -20 -12 -22 -7 -3 9 -6 36 -6
l50 -1 -22 20 c-12 12 -22 25 -22 30 0 11 -14 13 -23 3z"/>
<path d="M283 23 c-27 -10 -11 -23 27 -23 43 0 54 14 18 24 -26 6 -28 6 -45
-1z"/>
</g>
</svg>
